<svg width="315" height="58" viewBox="0 0 315 58" fill="none" xmlns="http://www.w3.org/2000/svg">
<path d="M17.9679 32.1231H16.2786V26.7481H17.5072C23.1893 26.7481 26.1072 23.2928 26.1072 18.1481C26.1072 12.8499 22.8054 9.70166 18.0447 9.70166C14.2822 9.70166 11.825 10.7767 10.8268 12.466C11.0572 12.3892 11.3643 12.3892 11.6715 12.3892C15.5108 12.3892 17.6608 14.9999 17.6608 18.7624C17.6608 22.141 14.8965 25.2124 10.5197 25.2124C5.68216 25.2124 2.38036 21.6035 2.38036 16.4588C2.38036 8.85701 8.98395 2.79092 22.7286 2.79092C33.0947 2.79092 43.0001 7.47487 43.0001 16.766C43.0001 22.7553 38.7769 26.7481 30.7144 28.591C40.7733 29.9731 45.6876 34.5035 45.6876 41.4142C45.6876 52.4714 33.8626 58 21.1929 58C8.29288 58 0 51.55 0 43.2571C0 37.8053 3.53215 34.0428 8.60002 34.0428C13.2072 34.0428 16.125 37.2678 16.125 40.8C16.125 44.7928 13.8215 47.5571 9.8286 47.5571H9.44467C10.5965 49.7071 13.3608 51.0893 17.584 51.0893C23.2661 51.0893 28.0269 47.5571 28.0269 41.4142C28.0269 35.9624 25.2626 32.1231 17.9679 32.1231Z" fill="#FC6081"/>
<path d="M73.5177 58C60.2337 58 50.4819 50.3982 50.4819 31.8928C50.4819 11.6213 61.0016 2.79092 76.6659 2.79092C87.7231 2.79092 93.9428 8.54987 93.9428 14.1552C93.9428 18.1481 91.2553 20.9124 87.1856 20.9124C83.116 20.9124 80.582 18.0713 80.582 14.9999C80.582 13.3874 81.0427 11.6981 82.1177 10.5463C82.5785 10.0856 83.116 9.70166 83.7302 9.4713C82.2713 8.78023 80.3517 8.3963 77.9713 8.3963C70.0624 8.3963 67.682 14.0785 67.6052 26.0571C69.9856 24.4446 72.9802 23.4463 76.7427 23.4463C86.8017 23.4463 95.6321 29.666 95.6321 39.6482C95.6321 50.5518 86.8017 58 73.5177 58ZM68.1427 40.416C68.1427 48.7857 69.7552 52.3946 73.4409 52.3946C77.1267 52.3946 78.7392 48.7857 78.7392 40.416C78.7392 32.5071 77.2034 29.2053 73.4409 29.2053C69.6784 29.2053 68.1427 32.5071 68.1427 40.416Z" fill="#FC6081"/>
<path d="M150.162 30.3571C150.162 47.0196 140.41 58 125.667 58C110.924 58 101.173 47.0196 101.173 30.3571C101.173 13.6945 110.924 2.71414 125.667 2.71414C140.41 2.71414 150.162 13.6945 150.162 30.3571ZM119.601 30.0499C119.601 45.7143 121.367 52.3946 125.667 52.3946C129.967 52.3946 131.733 45.7143 131.733 30.0499C131.733 14.8463 129.967 8.31951 125.667 8.31951C121.367 8.31951 119.601 14.8463 119.601 30.0499Z" fill="#FC6081"/>
<path d="M154.232 13.2338C154.232 7.16773 158.839 2.71414 164.829 2.71414C170.818 2.71414 175.425 7.16773 175.425 13.2338C175.425 19.2999 170.818 23.7535 164.829 23.7535C158.839 23.7535 154.232 19.2999 154.232 13.2338ZM158.072 13.2338C158.072 17.3035 160.759 20.2981 164.829 20.2981C168.898 20.2981 171.586 17.3035 171.586 13.2338C171.586 9.16416 168.898 6.16951 164.829 6.16951C160.759 6.16951 158.072 9.16416 158.072 13.2338Z" fill="#FC6081"/>
<path d="M206.446 8.42675C206.446 10.4055 205.763 12.0545 204.399 13.3736C203.057 14.6701 200.998 15.3183 198.224 15.3183H193.652V25.2461H190.547V1.467H198.224C200.907 1.467 202.943 2.11522 204.33 3.41164C205.741 4.70806 206.446 6.37977 206.446 8.42675ZM198.224 12.7595C199.952 12.7595 201.226 12.3843 202.045 11.6337C202.863 10.8831 203.273 9.81415 203.273 8.42675C203.273 5.49274 201.59 4.02573 198.224 4.02573H193.652V12.7595H198.224Z" fill="#FC6081"/>
<path d="M209.144 15.83C209.144 13.9195 209.531 12.2478 210.304 10.8149C211.078 9.35926 212.135 8.23342 213.477 7.43737C214.842 6.64132 216.354 6.2433 218.015 6.2433C219.652 6.2433 221.074 6.59584 222.279 7.30091C223.485 8.00598 224.383 8.89301 224.974 9.96199V6.55035H228.113V25.2461H224.974V21.7663C224.36 22.858 223.439 23.7678 222.211 24.4956C221.005 25.2006 219.595 25.5532 217.98 25.5532C216.32 25.5532 214.819 25.1438 213.477 24.325C212.135 23.5062 211.078 22.3576 210.304 20.8792C209.531 19.4009 209.144 17.7178 209.144 15.83ZM224.974 15.8641C224.974 14.454 224.69 13.2258 224.121 12.1796C223.553 11.1333 222.78 10.3373 221.802 9.79141C220.846 9.2228 219.789 8.9385 218.629 8.9385C217.469 8.9385 216.411 9.21143 215.456 9.75729C214.501 10.3032 213.739 11.0992 213.17 12.1454C212.601 13.1917 212.317 14.4199 212.317 15.83C212.317 17.2629 212.601 18.5138 213.17 19.5828C213.739 20.629 214.501 21.4365 215.456 22.0051C216.411 22.5509 217.469 22.8239 218.629 22.8239C219.789 22.8239 220.846 22.5509 221.802 22.0051C222.78 21.4365 223.553 20.629 224.121 19.5828C224.69 18.5138 224.974 17.2743 224.974 15.8641Z" fill="#FC6081"/>
<path d="M242.469 6.20918C244.743 6.20918 246.585 6.90288 247.995 8.29028C249.406 9.65494 250.111 11.6337 250.111 14.2265V25.2461H247.04V14.6701C247.04 12.805 246.574 11.3835 245.641 10.4055C244.709 9.40475 243.435 8.90438 241.82 8.90438C240.183 8.90438 238.875 9.41613 237.897 10.4396C236.942 11.4631 236.464 12.9529 236.464 14.9089V25.2461H233.36V6.55035H236.464V9.21143C237.078 8.25617 237.908 7.51698 238.955 6.99386C240.024 6.47074 241.195 6.20918 242.469 6.20918Z" fill="#FC6081"/>
<path d="M272.24 15.1818C272.24 15.7731 272.206 16.3986 272.138 17.0582H257.195C257.309 18.9005 257.934 20.3447 259.071 21.391C260.231 22.4145 261.63 22.9262 263.268 22.9262C264.61 22.9262 265.724 22.6192 266.611 22.0051C267.521 21.3682 268.158 20.5267 268.522 19.4805H271.865C271.365 21.2773 270.364 22.7443 268.863 23.8815C267.362 24.9959 265.497 25.5532 263.268 25.5532C261.494 25.5532 259.901 25.1552 258.491 24.3591C257.104 23.5631 256.012 22.4372 255.216 20.9816C254.42 19.5032 254.022 17.7974 254.022 15.8641C254.022 13.9309 254.409 12.2364 255.182 10.7808C255.955 9.32515 257.036 8.21068 258.423 7.43737C259.833 6.64132 261.448 6.2433 263.268 6.2433C265.042 6.2433 266.611 6.62995 267.976 7.40326C269.34 8.17656 270.387 9.24554 271.114 10.6102C271.865 11.9521 272.24 13.476 272.24 15.1818ZM269.033 14.5336C269.033 13.3509 268.772 12.3388 268.249 11.4972C267.726 10.6329 267.009 9.98473 266.099 9.55259C265.212 9.09771 264.223 8.87026 263.131 8.87026C261.562 8.87026 260.22 9.37064 259.105 10.3714C258.014 11.3721 257.388 12.7595 257.229 14.5336H269.033Z" fill="#FC6081"/>
<path d="M279.443 0V25.2461H276.338V0H279.443Z" fill="#FC6081"/>
<path d="M198.087 55.4718C196.518 55.4718 195.108 55.1989 193.857 54.653C192.629 54.0844 191.662 53.3111 190.957 52.3331C190.252 51.3324 189.888 50.1838 189.865 48.8874H193.174C193.288 50.0018 193.743 50.9457 194.539 51.719C195.358 52.4696 196.541 52.8449 198.087 52.8449C199.566 52.8449 200.726 52.481 201.567 51.7531C202.431 51.0026 202.863 50.0473 202.863 48.8874C202.863 47.9776 202.613 47.2384 202.113 46.6698C201.613 46.1012 200.987 45.6691 200.237 45.3734C199.486 45.0777 198.474 44.7593 197.2 44.4181C195.631 44.0087 194.368 43.5993 193.413 43.1899C192.481 42.7805 191.673 42.1437 190.991 41.2794C190.331 40.3924 190.002 39.2097 190.002 37.7313C190.002 36.4349 190.331 35.2863 190.991 34.2855C191.651 33.2848 192.572 32.5115 193.754 31.9656C194.96 31.4198 196.336 31.1468 197.882 31.1468C200.111 31.1468 201.931 31.7041 203.341 32.8185C204.774 33.933 205.581 35.4114 205.763 37.2537H202.352C202.238 36.3439 201.76 35.5479 200.919 34.8655C200.077 34.1605 198.963 33.8079 197.575 33.8079C196.279 33.8079 195.221 34.1491 194.403 34.8314C193.584 35.491 193.174 36.4235 193.174 37.629C193.174 38.4932 193.413 39.1983 193.891 39.7442C194.391 40.29 194.994 40.7108 195.699 41.0065C196.427 41.2794 197.439 41.5978 198.735 41.9617C200.305 42.3939 201.567 42.826 202.522 43.2582C203.478 43.6676 204.296 44.3158 204.979 45.2028C205.661 46.0671 206.002 47.2498 206.002 48.7509C206.002 49.9109 205.695 51.0026 205.081 52.0261C204.467 53.0496 203.557 53.8797 202.352 54.5166C201.146 55.1534 199.725 55.4718 198.087 55.4718Z" fill="#FC6081"/>
<path d="M227.629 45.1687C227.629 45.76 227.595 46.3855 227.527 47.0451H212.584C212.697 48.8874 213.323 50.3316 214.46 51.3779C215.62 52.4014 217.019 52.9131 218.656 52.9131C219.998 52.9131 221.113 52.6061 222 51.992C222.91 51.3551 223.546 50.5136 223.91 49.4673H227.254C226.753 51.2641 225.753 52.7311 224.252 53.8684C222.75 54.9828 220.885 55.5401 218.656 55.5401C216.882 55.5401 215.29 55.142 213.88 54.346C212.493 53.5499 211.401 52.4241 210.605 50.9685C209.809 49.4901 209.411 47.7843 209.411 45.851C209.411 43.9177 209.798 42.2233 210.571 40.7677C211.344 39.312 212.424 38.1976 213.812 37.4243C215.222 36.6282 216.837 36.2302 218.656 36.2302C220.43 36.2302 222 36.6168 223.364 37.3901C224.729 38.1634 225.775 39.2324 226.503 40.5971C227.254 41.939 227.629 43.4629 227.629 45.1687ZM224.422 44.5205C224.422 43.3378 224.161 42.3256 223.637 41.4841C223.114 40.6198 222.398 39.9716 221.488 39.5395C220.601 39.0846 219.612 38.8571 218.52 38.8571C216.951 38.8571 215.609 39.3575 214.494 40.3583C213.403 41.359 212.777 42.7464 212.618 44.5205H224.422Z" fill="#FC6081"/>
<path d="M238.346 55.5401C236.913 55.5401 235.628 55.3012 234.49 54.8236C233.353 54.3232 232.455 53.6409 231.795 52.7766C231.136 51.8896 230.772 50.8775 230.704 49.7403H233.91C234.001 50.6728 234.434 51.4347 235.207 52.0261C236.003 52.6174 237.038 52.9131 238.311 52.9131C239.494 52.9131 240.427 52.6515 241.109 52.1284C241.791 51.6053 242.133 50.9457 242.133 50.1497C242.133 49.3309 241.769 48.7282 241.041 48.3415C240.313 47.9321 239.187 47.5341 237.663 47.1474C236.276 46.7835 235.139 46.4196 234.252 46.0557C233.387 45.6691 232.637 45.1118 232 44.384C231.386 43.6334 231.079 42.6554 231.079 41.45C231.079 40.4947 231.363 39.6191 231.932 38.823C232.5 38.027 233.308 37.4015 234.354 36.9466C235.4 36.469 236.594 36.2302 237.936 36.2302C240.006 36.2302 241.678 36.7533 242.951 37.7995C244.225 38.8458 244.907 40.2787 244.998 42.0982H241.894C241.825 41.1202 241.427 40.3355 240.7 39.7442C239.995 39.1528 239.039 38.8571 237.834 38.8571C236.719 38.8571 235.832 39.096 235.173 39.5736C234.513 40.0512 234.183 40.6767 234.183 41.45C234.183 42.0641 234.377 42.5758 234.763 42.9852C235.173 43.3719 235.673 43.6903 236.264 43.9405C236.879 44.1679 237.72 44.4295 238.789 44.7252C240.131 45.0891 241.223 45.453 242.064 45.8169C242.906 46.1581 243.622 46.6812 244.214 47.3862C244.828 48.0913 245.146 49.0125 245.169 50.1497C245.169 51.1732 244.885 52.0943 244.316 52.9131C243.747 53.7319 242.94 54.3801 241.894 54.8577C240.87 55.3126 239.688 55.5401 238.346 55.5401Z" fill="#FC6081"/>
<path d="M256.17 55.5401C254.737 55.5401 253.452 55.3012 252.315 54.8236C251.178 54.3232 250.279 53.6409 249.62 52.7766C248.96 51.8896 248.596 50.8775 248.528 49.7403H251.735C251.826 50.6728 252.258 51.4347 253.031 52.0261C253.827 52.6174 254.862 52.9131 256.136 52.9131C257.319 52.9131 258.251 52.6515 258.934 52.1284C259.616 51.6053 259.957 50.9457 259.957 50.1497C259.957 49.3309 259.593 48.7282 258.865 48.3415C258.137 47.9321 257.012 47.5341 255.488 47.1474C254.1 46.7835 252.963 46.4196 252.076 46.0557C251.212 45.6691 250.461 45.1118 249.824 44.384C249.21 43.6334 248.903 42.6554 248.903 41.45C248.903 40.4947 249.188 39.6191 249.756 38.823C250.325 38.027 251.132 37.4015 252.178 36.9466C253.225 36.469 254.419 36.2302 255.761 36.2302C257.83 36.2302 259.502 36.7533 260.776 37.7995C262.049 38.8458 262.732 40.2787 262.823 42.0982H259.718C259.65 41.1202 259.252 40.3355 258.524 39.7442C257.819 39.1528 256.864 38.8571 255.658 38.8571C254.544 38.8571 253.657 39.096 252.997 39.5736C252.338 40.0512 252.008 40.6767 252.008 41.45C252.008 42.0641 252.201 42.5758 252.588 42.9852C252.997 43.3719 253.498 43.6903 254.089 43.9405C254.703 44.1679 255.545 44.4295 256.614 44.7252C257.955 45.0891 259.047 45.453 259.889 45.8169C260.73 46.1581 261.447 46.6812 262.038 47.3862C262.652 48.0913 262.971 49.0125 262.993 50.1497C262.993 51.1732 262.709 52.0943 262.14 52.9131C261.572 53.7319 260.764 54.3801 259.718 54.8577C258.695 55.3126 257.512 55.5401 256.17 55.5401Z" fill="#FC6081"/>
<path d="M268.979 33.5009C268.388 33.5009 267.888 33.2962 267.478 32.8868C267.069 32.4774 266.864 31.977 266.864 31.3857C266.864 30.7943 267.069 30.2939 267.478 29.8845C267.888 29.4751 268.388 29.2704 268.979 29.2704C269.548 29.2704 270.026 29.4751 270.412 29.8845C270.822 30.2939 271.026 30.7943 271.026 31.3857C271.026 31.977 270.822 32.4774 270.412 32.8868C270.026 33.2962 269.548 33.5009 268.979 33.5009ZM270.481 36.5372V55.233H267.376V36.5372H270.481Z" fill="#FC6081"/>
<path d="M283.926 55.5401C282.174 55.5401 280.582 55.142 279.149 54.346C277.739 53.5499 276.625 52.4241 275.806 50.9685C275.01 49.4901 274.612 47.7843 274.612 45.851C274.612 43.9405 275.021 42.2574 275.84 40.8018C276.682 39.3234 277.819 38.1976 279.252 37.4243C280.685 36.6282 282.288 36.2302 284.062 36.2302C285.836 36.2302 287.44 36.6282 288.873 37.4243C290.305 38.1976 291.431 39.312 292.25 40.7677C293.092 42.2233 293.512 43.9177 293.512 45.851C293.512 47.7843 293.08 49.4901 292.216 50.9685C291.374 52.4241 290.226 53.5499 288.77 54.346C287.315 55.142 285.7 55.5401 283.926 55.5401ZM283.926 52.8108C285.04 52.8108 286.086 52.5492 287.064 52.0261C288.042 51.503 288.827 50.7183 289.418 49.672C290.032 48.6258 290.34 47.3521 290.34 45.851C290.34 44.3499 290.044 43.0762 289.452 42.03C288.861 40.9837 288.088 40.2104 287.133 39.7101C286.177 39.1869 285.142 38.9254 284.028 38.9254C282.891 38.9254 281.845 39.1869 280.889 39.7101C279.957 40.2104 279.206 40.9837 278.638 42.03C278.069 43.0762 277.785 44.3499 277.785 45.851C277.785 47.3749 278.058 48.6599 278.603 49.7062C279.172 50.7524 279.923 51.5371 280.855 52.0602C281.788 52.5606 282.811 52.8108 283.926 52.8108Z" fill="#FC6081"/>
<path d="M306.703 36.1961C308.978 36.1961 310.82 36.8898 312.23 38.2772C313.64 39.6418 314.345 41.6206 314.345 44.2134V55.233H311.275V44.6569C311.275 42.7919 310.809 41.3704 309.876 40.3924C308.944 39.3916 307.67 38.8913 306.055 38.8913C304.418 38.8913 303.11 39.403 302.132 40.4265C301.177 41.45 300.699 42.9397 300.699 44.8957V55.233H297.594V36.5372H300.699V39.1983C301.313 38.243 302.143 37.5039 303.189 36.9807C304.258 36.4576 305.43 36.1961 306.703 36.1961Z" fill="#FC6081"/>
</svg>
