<svg width="174" height="58" viewBox="0 0 174 58" fill="none" xmlns="http://www.w3.org/2000/svg">
<path d="M21.8807 3.34805V27.0888H16.0977V17.3152H7.10192V27.0888H1.31893V3.34805H7.10192V12.6482H16.0977V3.34805H21.8807Z" fill="#FC6081"/>
<path d="M43.8441 17.349C43.8441 17.8901 43.8102 18.4537 43.7426 19.0399H30.6548C30.745 20.2123 31.117 21.1141 31.7708 21.7454C32.4472 22.3541 33.2701 22.6585 34.2396 22.6585C35.6825 22.6585 36.6858 22.0498 37.2494 20.8323H43.4044C43.0888 22.0723 42.5139 23.1883 41.6797 24.1804C40.868 25.1724 39.8422 25.9502 38.6022 26.5138C37.3621 27.0775 35.9756 27.3593 34.4425 27.3593C32.5937 27.3593 30.9479 26.9648 29.5049 26.1757C28.062 25.3866 26.9347 24.2593 26.1231 22.7938C25.3114 21.3283 24.9056 19.6148 24.9056 17.6533C24.9056 15.6919 25.3002 13.9784 26.0893 12.5129C26.9009 11.0474 28.0282 9.92015 29.4711 9.13104C30.9141 8.34194 32.5712 7.94739 34.4425 7.94739C36.2687 7.94739 37.892 8.33067 39.3124 9.09723C40.7327 9.86378 41.8375 10.9573 42.6266 12.3776C43.4382 13.798 43.8441 15.4551 43.8441 17.349ZM37.9258 15.8271C37.9258 14.8351 37.5876 14.046 36.9112 13.4598C36.2349 12.8736 35.3894 12.5805 34.3748 12.5805C33.4054 12.5805 32.5824 12.8624 31.9061 13.426C31.2522 13.9897 30.8464 14.79 30.6886 15.8271H37.9258Z" fill="#FC6081"/>
<path d="M52.6779 11.3631C53.3542 10.326 54.1997 9.51432 55.2143 8.92813C56.2288 8.3194 57.3561 8.01503 58.5961 8.01503V14.1362H57.0067C55.5637 14.1362 54.4815 14.4518 53.7601 15.0831C53.0386 15.6919 52.6779 16.7741 52.6779 18.3297V27.0888H46.8949V8.21794H52.6779V11.3631Z" fill="#FC6081"/>
<path d="M79.4533 10.9911C79.4533 12.3664 79.1376 13.6289 78.5063 14.7788C77.8751 15.9061 76.9056 16.8192 75.5979 17.5181C74.2903 18.217 72.667 18.5665 70.7281 18.5665H67.1433V27.0888H61.3603V3.34805H70.7281C72.6219 3.34805 74.2226 3.67496 75.5303 4.32879C76.838 4.98262 77.8187 5.88445 78.4725 7.03428C79.1264 8.18412 79.4533 9.50305 79.4533 10.9911ZM70.2884 13.9671C71.3932 13.9671 72.2161 13.7078 72.7572 13.1893C73.2983 12.6707 73.5688 11.938 73.5688 10.9911C73.5688 10.0441 73.2983 9.31141 72.7572 8.79286C72.2161 8.2743 71.3932 8.01503 70.2884 8.01503H67.1433V13.9671H70.2884Z" fill="#FC6081"/>
<path d="M94.0637 8.01503C96.2281 8.01503 97.9642 8.73649 99.2718 10.1794C100.579 11.5998 101.233 13.5613 101.233 16.0639V27.0888H95.4841V16.8417C95.4841 15.5791 95.1572 14.5984 94.5034 13.8995C93.8495 13.2006 92.9703 12.8511 91.8655 12.8511C90.7608 12.8511 89.8815 13.2006 89.2277 13.8995C88.5738 14.5984 88.2469 15.5791 88.2469 16.8417V27.0888H82.4639V2.06294H88.2469V10.7543C88.8331 9.92015 89.6335 9.25504 90.648 8.75904C91.6626 8.26303 92.8012 8.01503 94.0637 8.01503Z" fill="#FC6081"/>
<path d="M124.529 8.21794L112.692 36.0507H106.469L110.798 26.4462L103.121 8.21794H109.581L113.943 20.0207L118.272 8.21794H124.529Z" fill="#FC6081"/>
<path d="M134.297 27.3593C132.651 27.3593 131.185 27.0775 129.9 26.5138C128.615 25.9502 127.6 25.1836 126.856 24.2142C126.112 23.2222 125.695 22.1174 125.605 20.8999H131.321C131.388 21.5538 131.693 22.0836 132.234 22.4894C132.775 22.8952 133.44 23.0982 134.229 23.0982C134.95 23.0982 135.503 22.9629 135.886 22.6923C136.292 22.3992 136.495 22.0272 136.495 21.5763C136.495 21.0352 136.213 20.6407 135.649 20.3927C135.086 20.1221 134.173 19.829 132.91 19.5134C131.557 19.1977 130.43 18.8708 129.528 18.5326C128.626 18.1719 127.848 17.6195 127.195 16.8755C126.541 16.109 126.214 15.0831 126.214 13.798C126.214 12.7158 126.507 11.7351 127.093 10.8558C127.702 9.95396 128.581 9.24377 129.731 8.72522C130.903 8.20667 132.29 7.94739 133.891 7.94739C136.258 7.94739 138.118 8.53358 139.471 9.70596C140.846 10.8783 141.635 12.434 141.838 14.3729H136.495C136.405 13.7191 136.112 13.2006 135.616 12.8173C135.142 12.434 134.511 12.2424 133.722 12.2424C133.045 12.2424 132.527 12.3776 132.166 12.6482C131.805 12.8962 131.625 13.2456 131.625 13.6966C131.625 14.2377 131.907 14.6435 132.47 14.914C133.057 15.1846 133.958 15.4551 135.176 15.7257C136.574 16.0864 137.712 16.4471 138.592 16.8079C139.471 17.1461 140.237 17.7097 140.891 18.4988C141.568 19.2654 141.917 20.3025 141.94 21.6101C141.94 22.7149 141.624 23.7069 140.993 24.5862C140.384 25.4429 139.493 26.1193 138.321 26.6153C137.171 27.1113 135.83 27.3593 134.297 27.3593Z" fill="#FC6081"/>
<path d="M148.386 6.25646C147.371 6.25646 146.537 5.96336 145.883 5.37717C145.252 4.76843 144.937 4.02442 144.937 3.14514C144.937 2.24331 145.252 1.4993 145.883 0.913105C146.537 0.304368 147.371 0 148.386 0C149.378 0 150.19 0.304368 150.821 0.913105C151.475 1.4993 151.802 2.24331 151.802 3.14514C151.802 4.02442 151.475 4.76843 150.821 5.37717C150.19 5.96336 149.378 6.25646 148.386 6.25646ZM151.261 8.21794V27.0888H145.478V8.21794H151.261Z" fill="#FC6081"/>
<path d="M164.041 27.3593C162.193 27.3593 160.524 26.9648 159.036 26.1757C157.571 25.3866 156.41 24.2593 155.553 22.7938C154.719 21.3283 154.302 19.6148 154.302 17.6533C154.302 15.7144 154.73 14.0122 155.587 12.5467C156.444 11.0587 157.616 9.92015 159.104 9.13104C160.592 8.34194 162.26 7.94739 164.109 7.94739C165.958 7.94739 167.626 8.34194 169.114 9.13104C170.602 9.92015 171.775 11.0587 172.631 12.5467C173.488 14.0122 173.916 15.7144 173.916 17.6533C173.916 19.5923 173.477 21.3058 172.598 22.7938C171.741 24.2593 170.557 25.3866 169.047 26.1757C167.559 26.9648 165.89 27.3593 164.041 27.3593ZM164.041 22.3541C165.146 22.3541 166.082 21.9483 166.848 21.1367C167.637 20.325 168.032 19.1639 168.032 17.6533C168.032 16.1428 167.649 14.9817 166.882 14.17C166.138 13.3584 165.214 12.9526 164.109 12.9526C162.982 12.9526 162.046 13.3584 161.302 14.17C160.558 14.9591 160.186 16.1202 160.186 17.6533C160.186 19.1639 160.547 20.325 161.268 21.1367C162.012 21.9483 162.937 22.3541 164.041 22.3541Z" fill="#FC6081"/>
<path d="M31.4514 34.124L24.62 57.6956H21.1705L15.6919 38.7234L10.0103 57.6956L6.59464 57.7295L0 34.124H3.28041L8.42085 54.1109L14.1024 34.124H17.5519L22.9629 54.0432L28.1371 34.124H31.4514Z" fill="#FC6081"/>
<path d="M51.7286 47.7191C51.7286 48.3053 51.6947 48.9253 51.6271 49.5792H36.8145C36.9273 51.4054 37.5473 52.837 38.6746 53.8741C39.8244 54.8887 41.211 55.396 42.8343 55.396C44.1645 55.396 45.2692 55.0916 46.1485 54.4829C47.0503 53.8516 47.6816 53.0174 48.0423 51.9803H51.3566C50.8606 53.7614 49.8685 55.2156 48.3805 56.3429C46.8925 57.4476 45.0437 58 42.8343 58C41.0757 58 39.4975 57.6055 38.0996 56.8163C36.7243 56.0272 35.6422 54.9112 34.853 53.4683C34.0639 52.0028 33.6694 50.3119 33.6694 48.3955C33.6694 46.4791 34.0527 44.7994 34.8192 43.3565C35.5858 41.9136 36.6567 40.8088 38.032 40.0423C39.4298 39.2532 41.0306 38.8586 42.8343 38.8586C44.5928 38.8586 46.1485 39.2419 47.5012 40.0085C48.854 40.775 49.8911 41.8347 50.6126 43.1874C51.3566 44.5176 51.7286 46.0282 51.7286 47.7191ZM48.5496 47.0766C48.5496 45.9042 48.2903 44.9009 47.7718 44.0667C47.2532 43.21 46.543 42.5674 45.6412 42.139C44.7619 41.6881 43.7812 41.4627 42.699 41.4627C41.1433 41.4627 39.8131 41.9587 38.7084 42.9507C37.6262 43.9427 37.0062 45.318 36.8483 47.0766H48.5496Z" fill="#FC6081"/>
<path d="M58.8683 42.6125C59.4996 41.5078 60.4239 40.6059 61.6414 39.907C62.8589 39.2081 64.2454 38.8586 65.8011 38.8586C67.4695 38.8586 68.9688 39.2532 70.299 40.0423C71.6292 40.8314 72.6776 41.9474 73.4441 43.3903C74.2107 44.8107 74.5939 46.4678 74.5939 48.3617C74.5939 50.233 74.2107 51.9014 73.4441 53.3668C72.6776 54.8323 71.6179 55.9709 70.2652 56.7825C68.935 57.5942 67.4469 58 65.8011 58C64.2003 58 62.7912 57.6505 61.5738 56.9516C60.3788 56.2527 59.477 55.3621 58.8683 54.2799V57.6956H55.7908V32.6698H58.8683V42.6125ZM71.4488 48.3617C71.4488 46.9638 71.167 45.7464 70.6033 44.7093C70.0397 43.6722 69.2731 42.8831 68.3037 42.342C67.3568 41.8009 66.3084 41.5303 65.1585 41.5303C64.0313 41.5303 62.9829 41.8121 62.0134 42.3758C61.0665 42.9169 60.2999 43.7173 59.7137 44.7769C59.1501 45.814 58.8683 47.0202 58.8683 48.3955C58.8683 49.7933 59.1501 51.0221 59.7137 52.0817C60.2999 53.1188 61.0665 53.9192 62.0134 54.4829C62.9829 55.024 64.0313 55.2945 65.1585 55.2945C66.3084 55.2945 67.3568 55.024 68.3037 54.4829C69.2731 53.9192 70.0397 53.1188 70.6033 52.0817C71.167 51.0221 71.4488 49.7821 71.4488 48.3617Z" fill="#FC6081"/>
<path d="M80.2343 36.1531C79.6481 36.1531 79.1521 35.9502 78.7462 35.5444C78.3404 35.1386 78.1375 34.6426 78.1375 34.0564C78.1375 33.4702 78.3404 32.9742 78.7462 32.5684C79.1521 32.1625 79.6481 31.9596 80.2343 31.9596C80.7979 31.9596 81.2714 32.1625 81.6547 32.5684C82.0605 32.9742 82.2634 33.4702 82.2634 34.0564C82.2634 34.6426 82.0605 35.1386 81.6547 35.5444C81.2714 35.9502 80.7979 36.1531 80.2343 36.1531ZM81.7223 39.163V57.6956H78.6448V39.163H81.7223Z" fill="#FC6081"/>
<path d="M95.9969 38.8248C98.2515 38.8248 100.078 39.5125 101.476 40.8878C102.873 42.2405 103.572 44.202 103.572 46.7722V57.6956H100.529V47.2118C100.529 45.3631 100.066 43.954 99.1421 42.9845C98.2177 41.9925 96.9551 41.4965 95.3544 41.4965C93.7311 41.4965 92.4347 42.0038 91.4652 43.0183C90.5183 44.0329 90.0449 45.5096 90.0449 47.4486V57.6956H86.9674V39.163H90.0449V41.8009C90.6536 40.8539 91.4765 40.1212 92.5136 39.6026C93.5733 39.0841 94.7344 38.8248 95.9969 38.8248Z" fill="#FC6081"/>
<path d="M107.45 48.3617C107.45 46.4678 107.833 44.8107 108.599 43.3903C109.366 41.9474 110.414 40.8314 111.745 40.0423C113.097 39.2532 114.597 38.8586 116.242 38.8586C117.866 38.8586 119.275 39.2081 120.47 39.907C121.665 40.6059 122.555 41.4852 123.141 42.5449V39.163H126.253V57.6956H123.141V54.2461C122.533 55.3283 121.62 56.2302 120.402 56.9516C119.207 57.6505 117.809 58 116.209 58C114.563 58 113.075 57.5942 111.745 56.7825C110.414 55.9709 109.366 54.8323 108.599 53.3668C107.833 51.9014 107.45 50.233 107.45 48.3617ZM123.141 48.3955C123.141 46.9977 122.86 45.7802 122.296 44.7431C121.732 43.706 120.966 42.9169 119.996 42.3758C119.049 41.8121 118.001 41.5303 116.851 41.5303C115.701 41.5303 114.653 41.8009 113.706 42.342C112.759 42.8831 112.004 43.6722 111.44 44.7093C110.877 45.7464 110.595 46.9638 110.595 48.3617C110.595 49.7821 110.877 51.0221 111.44 52.0817C112.004 53.1188 112.759 53.9192 113.706 54.4829C114.653 55.024 115.701 55.2945 116.851 55.2945C118.001 55.2945 119.049 55.024 119.996 54.4829C120.966 53.9192 121.732 53.1188 122.296 52.0817C122.86 51.0221 123.141 49.7933 123.141 48.3955Z" fill="#FC6081"/>
<path d="M134.531 42.1729C135.072 41.1132 135.839 40.2903 136.831 39.7041C137.845 39.1179 139.074 38.8248 140.517 38.8248V42.0038H139.705C136.256 42.0038 134.531 43.8751 134.531 47.6177V57.6956H131.453V39.163H134.531V42.1729Z" fill="#FC6081"/>
</svg>
