<svg width="406" height="65" viewBox="0 0 406 65" fill="none" xmlns="http://www.w3.org/2000/svg">
<path d="M240.759 2.39151V26.3759H237.605V8.49159L229.633 26.3759H227.415L219.408 8.45693V26.3759H216.254V2.39151H219.651L228.524 22.2168L237.397 2.39151H240.759Z" fill="#FC6081"/>
<path d="M263.437 16.1514C263.437 16.7521 263.403 17.3875 263.333 18.0576H248.153C248.268 19.9292 248.904 21.3965 250.059 22.4594C251.237 23.4992 252.658 24.0191 254.322 24.0191C255.685 24.0191 256.817 23.7071 257.719 23.0833C258.643 22.4363 259.29 21.5814 259.66 20.5185H263.056C262.548 22.3439 261.531 23.8342 260.006 24.9895C258.481 26.1218 256.586 26.6879 254.322 26.6879C252.52 26.6879 250.902 26.2835 249.47 25.4748C248.06 24.6661 246.951 23.5223 246.142 22.0435C245.334 20.5416 244.929 18.8086 244.929 16.8445C244.929 14.8805 245.322 13.1591 246.108 11.6803C246.893 10.2015 247.991 9.06925 249.4 8.28364C250.833 7.47491 252.473 7.07055 254.322 7.07055C256.124 7.07055 257.719 7.46336 259.105 8.24898C260.491 9.03459 261.554 10.1206 262.294 11.507C263.056 12.8703 263.437 14.4184 263.437 16.1514ZM260.179 15.4928C260.179 14.2913 259.914 13.2631 259.382 12.4081C258.851 11.5301 258.123 10.8715 257.199 10.4325C256.298 9.9704 255.292 9.73934 254.183 9.73934C252.589 9.73934 251.226 10.2477 250.093 11.2644C248.984 12.281 248.349 13.6905 248.187 15.4928H260.179Z" fill="#FC6081"/>
<path d="M276.855 7.03589C279.165 7.03589 281.037 7.74064 282.47 9.15012C283.902 10.5365 284.618 12.5468 284.618 15.1809V26.3759H281.499V15.6315C281.499 13.7367 281.025 12.2926 280.078 11.299C279.131 10.2823 277.837 9.774 276.196 9.774C274.533 9.774 273.204 10.2939 272.21 11.3337C271.24 12.3735 270.755 13.8869 270.755 15.8741V26.3759H267.601V7.38249H270.755V10.0859C271.378 9.11546 272.222 8.36451 273.285 7.83306C274.371 7.30161 275.561 7.03589 276.855 7.03589Z" fill="#FC6081"/>
<path d="M293.618 9.98195V21.177C293.618 22.1012 293.814 22.7598 294.207 23.1526C294.6 23.5223 295.281 23.7071 296.252 23.7071H298.574V26.3759H295.732C293.976 26.3759 292.659 25.9716 291.781 25.1628C290.903 24.3541 290.464 23.0255 290.464 21.177V9.98195H288.003V7.38249H290.464V2.59947H293.618V7.38249H298.574V9.98195H293.618Z" fill="#FC6081"/>
<path d="M310.679 26.6879C308.9 26.6879 307.283 26.2835 305.827 25.4748C304.394 24.6661 303.262 23.5223 302.43 22.0435C301.622 20.5416 301.217 18.8086 301.217 16.8445C301.217 14.9036 301.633 13.1937 302.465 11.7149C303.32 10.213 304.475 9.06925 305.931 8.28364C307.387 7.47491 309.016 7.07055 310.818 7.07055C312.62 7.07055 314.249 7.47491 315.705 8.28364C317.161 9.06925 318.304 10.2015 319.136 11.6803C319.991 13.1591 320.419 14.8805 320.419 16.8445C320.419 18.8086 319.98 20.5416 319.101 22.0435C318.247 23.5223 317.08 24.6661 315.601 25.4748C314.122 26.2835 312.481 26.6879 310.679 26.6879ZM310.679 23.9151C311.811 23.9151 312.874 23.6494 313.868 23.1179C314.861 22.5865 315.659 21.7893 316.259 20.7264C316.883 19.6635 317.195 18.3696 317.195 16.8445C317.195 15.3195 316.895 14.0256 316.294 12.9627C315.693 11.8998 314.908 11.1142 313.937 10.6058C312.967 10.0744 311.915 9.80866 310.783 9.80866C309.628 9.80866 308.565 10.0744 307.594 10.6058C306.647 11.1142 305.885 11.8998 305.307 12.9627C304.729 14.0256 304.44 15.3195 304.44 16.8445C304.44 18.3927 304.718 19.6982 305.272 20.7611C305.85 21.824 306.612 22.6211 307.56 23.1526C308.507 23.6609 309.547 23.9151 310.679 23.9151Z" fill="#FC6081"/>
<path d="M327.72 10.4672C328.274 9.38119 329.06 8.53781 330.076 7.93704C331.116 7.33627 332.375 7.03589 333.854 7.03589V10.2939H333.022C329.487 10.2939 327.72 12.2117 327.72 16.0474V26.3759H324.565V7.38249H327.72V10.4672Z" fill="#FC6081"/>
<path d="M344.219 26.6879C342.763 26.6879 341.458 26.4452 340.303 25.96C339.147 25.4517 338.235 24.7585 337.564 23.8804C336.894 22.9793 336.525 21.9511 336.455 20.7957H339.713C339.806 21.7431 340.245 22.5172 341.03 23.1179C341.839 23.7187 342.89 24.0191 344.184 24.0191C345.386 24.0191 346.333 23.7534 347.027 23.2219C347.72 22.6905 348.066 22.0204 348.066 21.2117C348.066 20.3798 347.697 19.7675 346.957 19.3747C346.218 18.9588 345.074 18.5544 343.526 18.1616C342.116 17.7919 340.961 17.4222 340.06 17.0525C339.182 16.6597 338.419 16.0936 337.772 15.3542C337.149 14.5917 336.837 13.5981 336.837 12.3735C336.837 11.403 337.125 10.5134 337.703 9.70468C338.281 8.89595 339.101 8.26053 340.164 7.7984C341.227 7.31317 342.44 7.07055 343.803 7.07055C345.906 7.07055 347.604 7.602 348.898 8.66489C350.192 9.72778 350.885 11.1835 350.978 13.032H347.824C347.754 12.0384 347.35 11.2413 346.611 10.6405C345.894 10.0397 344.924 9.73934 343.699 9.73934C342.567 9.73934 341.666 9.98195 340.996 10.4672C340.326 10.9524 339.991 11.5878 339.991 12.3735C339.991 12.9973 340.187 13.5172 340.58 13.9331C340.996 14.326 341.504 14.6494 342.105 14.9036C342.729 15.1347 343.584 15.4004 344.67 15.7008C346.033 16.0705 347.142 16.4402 347.997 16.8099C348.852 17.1565 349.58 17.6879 350.181 18.4042C350.804 19.1205 351.128 20.0563 351.151 21.2117C351.151 22.2514 350.862 23.1872 350.285 24.0191C349.707 24.8509 348.887 25.5094 347.824 25.9947C346.784 26.4568 345.582 26.6879 344.219 26.6879Z" fill="#FC6081"/>
<path d="M365.031 7.03589C366.463 7.03589 367.757 7.34783 368.913 7.9717C370.068 8.57247 370.969 9.48517 371.616 10.7098C372.286 11.9344 372.621 13.4248 372.621 15.1809V26.3759H369.502V15.6315C369.502 13.7367 369.028 12.2926 368.081 11.299C367.133 10.2823 365.84 9.774 364.199 9.774C362.535 9.774 361.207 10.2939 360.213 11.3337C359.243 12.3735 358.757 13.8869 358.757 15.8741V26.3759H355.603V0.727852H358.757V10.0859C359.381 9.11546 360.236 8.36451 361.322 7.83306C362.431 7.30161 363.668 7.03589 365.031 7.03589Z" fill="#FC6081"/>
<path d="M379.402 4.29779C378.802 4.29779 378.293 4.08983 377.877 3.67391C377.461 3.258 377.253 2.74966 377.253 2.14889C377.253 1.54813 377.461 1.03979 377.877 0.623872C378.293 0.207957 378.802 0 379.402 0C379.98 0 380.465 0.207957 380.858 0.623872C381.274 1.03979 381.482 1.54813 381.482 2.14889C381.482 2.74966 381.274 3.258 380.858 3.67391C380.465 4.08983 379.98 4.29779 379.402 4.29779ZM380.927 7.38249V26.3759H377.773V7.38249H380.927Z" fill="#FC6081"/>
<path d="M389.457 10.8831C390.081 9.7971 391.005 8.89595 392.23 8.17966C393.477 7.44025 394.922 7.07055 396.562 7.07055C398.249 7.07055 399.774 7.47491 401.137 8.28364C402.523 9.09236 403.609 10.2361 404.395 11.7149C405.181 13.1706 405.574 14.869 405.574 16.8099C405.574 18.7277 405.181 20.4376 404.395 21.9395C403.609 23.4414 402.523 24.6083 401.137 25.4401C399.774 26.2719 398.249 26.6879 396.562 26.6879C394.945 26.6879 393.512 26.3297 392.264 25.6134C391.04 24.874 390.104 23.9613 389.457 22.8753V35.3874H386.303V7.38249H389.457V10.8831ZM402.35 16.8099C402.35 15.3773 402.061 14.1295 401.484 13.0667C400.906 12.0038 400.12 11.195 399.127 10.6405C398.156 10.0859 397.082 9.80866 395.904 9.80866C394.748 9.80866 393.674 10.0975 392.68 10.6751C391.71 11.2297 390.924 12.05 390.323 13.136C389.746 14.1989 389.457 15.4351 389.457 16.8445C389.457 18.2771 389.746 19.5364 390.323 20.6224C390.924 21.6853 391.71 22.5056 392.68 23.0833C393.674 23.6378 394.748 23.9151 395.904 23.9151C397.082 23.9151 398.156 23.6378 399.127 23.0833C400.12 22.5056 400.906 21.6853 401.484 20.6224C402.061 19.5364 402.35 18.2656 402.35 16.8099Z" fill="#FC6081"/>
<path d="M232.406 38.5548C232.406 40.565 231.713 42.2402 230.326 43.5804C228.963 44.8975 226.872 45.556 224.053 45.556H219.408V55.6419H216.254V31.4842H224.053C226.779 31.4842 228.847 32.1427 230.257 33.4598C231.689 34.7769 232.406 36.4752 232.406 38.5548ZM224.053 42.9565C225.809 42.9565 227.103 42.5753 227.935 41.8128C228.766 41.0502 229.182 39.9642 229.182 38.5548C229.182 35.574 227.473 34.0837 224.053 34.0837H219.408V42.9565H224.053Z" fill="#FC6081"/>
<path d="M239.48 39.7332C240.034 38.6472 240.82 37.8038 241.837 37.203C242.876 36.6023 244.136 36.3019 245.615 36.3019V39.5599H244.783C241.247 39.5599 239.48 41.4777 239.48 45.3134V55.6419H236.326V36.6485H239.48V39.7332Z" fill="#FC6081"/>
<path d="M257.539 55.9539C255.76 55.9539 254.142 55.5495 252.687 54.7408C251.254 53.932 250.122 52.7883 249.29 51.3095C248.481 49.8076 248.077 48.0746 248.077 46.1105C248.077 44.1696 248.493 42.4597 249.325 40.9809C250.18 39.479 251.335 38.3352 252.791 37.5496C254.246 36.7409 255.875 36.3365 257.678 36.3365C259.48 36.3365 261.109 36.7409 262.565 37.5496C264.02 38.3352 265.164 39.4675 265.996 40.9463C266.851 42.4251 267.278 44.1465 267.278 46.1105C267.278 48.0746 266.839 49.8076 265.961 51.3095C265.106 52.7883 263.94 53.932 262.461 54.7408C260.982 55.5495 259.341 55.9539 257.539 55.9539ZM257.539 53.1811C258.671 53.1811 259.734 52.9154 260.728 52.3839C261.721 51.8525 262.518 51.0553 263.119 49.9924C263.743 48.9295 264.055 47.6356 264.055 46.1105C264.055 44.5855 263.755 43.2916 263.154 42.2287C262.553 41.1658 261.768 40.3802 260.797 39.8718C259.827 39.3404 258.775 39.0746 257.643 39.0746C256.488 39.0746 255.425 39.3404 254.454 39.8718C253.507 40.3802 252.744 41.1658 252.167 42.2287C251.589 43.2916 251.3 44.5855 251.3 46.1105C251.3 47.6587 251.578 48.9642 252.132 50.0271C252.71 51.09 253.472 51.8871 254.42 52.4186C255.367 52.9269 256.407 53.1811 257.539 53.1811Z" fill="#FC6081"/>
<path d="M279.258 36.3365C280.899 36.3365 282.332 36.6947 283.556 37.411C284.804 38.1273 285.728 39.0284 286.329 40.1144V36.6485H289.518V56.0578C289.518 57.7908 289.148 59.3274 288.409 60.6676C287.669 62.0308 286.606 63.0937 285.22 63.8562C283.857 64.6187 282.262 65 280.437 65C277.941 65 275.862 64.4108 274.198 63.2324C272.534 62.0539 271.552 60.448 271.252 58.4147H274.371C274.718 59.57 275.434 60.4943 276.52 61.1875C277.606 61.9037 278.912 62.2619 280.437 62.2619C282.17 62.2619 283.579 61.7189 284.665 60.6329C285.774 59.5469 286.329 58.0219 286.329 56.0578V52.072C285.705 53.1811 284.781 54.1053 283.556 54.8447C282.332 55.5842 280.899 55.9539 279.258 55.9539C277.572 55.9539 276.035 55.5379 274.649 54.7061C273.285 53.8743 272.211 52.7074 271.425 51.2055C270.64 49.7036 270.247 47.9937 270.247 46.0759C270.247 44.1349 270.64 42.4366 271.425 40.9809C272.211 39.5021 273.285 38.3584 274.649 37.5496C276.035 36.7409 277.572 36.3365 279.258 36.3365ZM286.329 46.1105C286.329 44.6779 286.04 43.4302 285.462 42.3673C284.885 41.3044 284.099 40.4957 283.106 39.9411C282.135 39.3635 281.061 39.0746 279.882 39.0746C278.704 39.0746 277.629 39.3519 276.659 39.9065C275.688 40.461 274.914 41.2698 274.337 42.3326C273.759 43.3955 273.47 44.6433 273.47 46.0759C273.47 47.5316 273.759 48.8024 274.337 49.8884C274.914 50.9513 275.688 51.7716 276.659 52.3493C277.629 52.9038 278.704 53.1811 279.882 53.1811C281.061 53.1811 282.135 52.9038 283.106 52.3493C284.099 51.7716 284.885 50.9513 285.462 49.8884C286.04 48.8024 286.329 47.5431 286.329 46.1105Z" fill="#FC6081"/>
<path d="M298.002 39.7332C298.556 38.6472 299.342 37.8038 300.359 37.203C301.398 36.6023 302.658 36.3019 304.136 36.3019V39.5599H303.305C299.769 39.5599 298.002 41.4777 298.002 45.3134V55.6419H294.848V36.6485H298.002V39.7332Z" fill="#FC6081"/>
<path d="M306.599 46.0759C306.599 44.1349 306.992 42.4366 307.777 40.9809C308.563 39.5021 309.637 38.3584 311.001 37.5496C312.387 36.7409 313.924 36.3365 315.61 36.3365C317.274 36.3365 318.718 36.6947 319.943 37.411C321.167 38.1273 322.08 39.0284 322.681 40.1144V36.6485H325.87V55.6419H322.681V52.1066C322.057 53.2158 321.121 54.14 319.873 54.8794C318.649 55.5957 317.216 55.9539 315.576 55.9539C313.889 55.9539 312.364 55.5379 311.001 54.7061C309.637 53.8743 308.563 52.7074 307.777 51.2055C306.992 49.7036 306.599 47.9937 306.599 46.0759ZM322.681 46.1105C322.681 44.6779 322.392 43.4302 321.814 42.3673C321.237 41.3044 320.451 40.4957 319.458 39.9411C318.487 39.3635 317.413 39.0746 316.234 39.0746C315.056 39.0746 313.981 39.3519 313.011 39.9065C312.04 40.461 311.266 41.2698 310.689 42.3326C310.111 43.3955 309.822 44.6433 309.822 46.0759C309.822 47.5316 310.111 48.8024 310.689 49.8884C311.266 50.9513 312.04 51.7716 313.011 52.3493C313.981 52.9038 315.056 53.1811 316.234 53.1811C317.413 53.1811 318.487 52.9038 319.458 52.3493C320.451 51.7716 321.237 50.9513 321.814 49.8884C322.392 48.8024 322.681 47.5431 322.681 46.1105Z" fill="#FC6081"/>
<path d="M354.04 36.3019C355.519 36.3019 356.836 36.6138 357.991 37.2377C359.147 37.8385 360.059 38.7512 360.729 39.9758C361.4 41.2004 361.735 42.6908 361.735 44.4469V55.6419H358.615V44.8975C358.615 43.0027 358.142 41.5586 357.194 40.565C356.27 39.5483 355.011 39.04 353.416 39.04C351.776 39.04 350.47 39.5714 349.5 40.6343C348.529 41.6741 348.044 43.1876 348.044 45.1747V55.6419H344.925V44.8975C344.925 43.0027 344.451 41.5586 343.504 40.565C342.579 39.5483 341.32 39.04 339.726 39.04C338.085 39.04 336.78 39.5714 335.809 40.6343C334.839 41.6741 334.354 43.1876 334.354 45.1747V55.6419H331.2V36.6485H334.354V39.3866C334.977 38.393 335.809 37.6305 336.849 37.0991C337.912 36.5676 339.079 36.3019 340.35 36.3019C341.944 36.3019 343.353 36.66 344.578 37.3763C345.803 38.0926 346.715 39.144 347.316 40.5304C347.848 39.1902 348.726 38.1504 349.95 37.411C351.175 36.6716 352.538 36.3019 354.04 36.3019Z" fill="#FC6081"/>
<path d="M0 2.98525H29.8169V8.56636H27.8291C25.9942 8.56636 24.4651 9.94252 24.4651 12.7713V25.7684H40.3674V12.7713C40.3674 9.94252 38.8384 8.56636 37.0035 8.56636H35.0157V2.98525H64.8325V8.56636H61.3157C59.4808 8.56636 57.9517 9.94252 57.9517 12.7713V46.7166C57.9517 49.5454 59.4808 50.9216 61.3157 50.9216H64.8325V56.5027H35.0157V50.9216H37.0035C38.8384 50.9216 40.3674 49.5454 40.3674 46.7166V31.5024H24.4651V46.7166C24.4651 49.5454 25.9942 50.9216 27.8291 50.9216H29.8169V56.5027H0V50.9216H3.51686C5.35174 50.9216 6.88081 49.5454 6.88081 46.7166V12.7713C6.88081 9.94252 5.35174 8.56636 3.51686 8.56636H0V2.98525Z" fill="#FC6081"/>
<path d="M68.0167 8.56636V2.98525H100.357C115.953 2.98525 123.598 9.17799 123.598 19.5757C123.598 30.1262 113.507 36.6248 94.3931 36.6248H92.4818V46.7166C92.4818 49.5454 94.0109 50.9216 95.8458 50.9216H100.892V56.5027H68.0167V50.9216H71.5336C73.3684 50.9216 74.8975 49.5454 74.8975 46.7166V12.7713C74.8975 9.94252 73.3684 8.56636 71.5336 8.56636H68.0167ZM95.0048 8.56636H92.4818V31.0437H95.0048C102.727 31.0437 106.014 27.9091 106.014 20.2637C106.014 12.0832 102.727 8.56636 95.0048 8.56636Z" fill="#FC6081"/>
<path d="M179.985 46.7166V11.1658L167.676 56.5027H154.908L141.223 10.86V46.7166C141.223 49.5454 142.752 50.9216 144.587 50.9216H148.104V56.5027H126.85V50.9216H130.367C132.202 50.9216 133.731 49.5454 133.731 46.7166V12.7713C133.731 9.94252 132.202 8.56636 130.367 8.56636H126.85V2.98525H156.973L166.071 36.2425L174.863 2.98525H204.45V8.56636H200.933C199.099 8.56636 197.569 9.94252 197.569 12.7713V46.7166C197.569 49.5454 199.099 50.9216 200.933 50.9216H204.45V56.5027H173.869V50.9216H176.621C178.456 50.9216 179.985 49.5454 179.985 46.7166Z" fill="#FC6081"/>
</svg>
