<svg width="178" height="58" viewBox="0 0 178 58" fill="none" xmlns="http://www.w3.org/2000/svg">
<path d="M146.836 0C165.076 0 177.156 11.4398 177.156 28.7998C177.156 46.1598 165.076 57.5996 146.836 57.5996C137.453 57.5995 129.701 54.5718 124.384 49.2686C122.221 55.2224 118.408 57.5996 113.694 57.5996C104.174 57.5996 101.534 50 94.4941 50C90.4143 50.0001 87.9346 52.3199 87.9346 56.7998H79.5342V51.5996C79.5343 28.1598 106.334 31.1193 106.334 16.3193C106.334 10.8797 103.054 7.67977 96.9746 7.67969C92.7346 7.67969 90.0943 10.0001 89.6943 12.0801C90.0143 12.0001 90.4144 11.9199 90.7344 11.9199C95.0544 11.9199 97.4541 14.88 97.4541 19.04C97.454 22.8799 94.334 26.3193 89.4541 26.3193C85.7878 26.3192 82.8713 24.4102 81.3936 21.3604L72.7197 56.7998H54.4805L45.7598 25.6797L37.04 56.7998H18.4004L7.2002 11.04C6.4802 8.16004 5.59969 6.63965 3.67969 6.63965H0V0.799805H31.3604V6.63965H28.4805C26.8005 6.63965 25.9196 8.16004 26.5596 11.04L33.7598 42.7998L42.1602 12.7197L41.6797 11.04C40.8797 8.16012 40.08 6.63973 38.1602 6.63965H35.8398V0.799805H65.4404V6.63965H62.5596C60.8798 6.63991 59.9197 8.16029 60.6396 11.04L68.7998 42.2402L75.9199 11.04C76.7199 7.60004 76 6.63965 74 6.63965H71.1201V0.799805H95.2773C97.5306 0.330289 100.02 0.0800786 102.734 0.0800781C111.423 0.0800781 119.777 2.97627 123.158 9.64453C128.474 3.53081 136.704 7.08894e-05 146.836 0ZM146.836 5.83984C139.316 5.84003 136.116 12.6399 136.116 28.4795C136.116 44.7993 139.316 51.7596 146.836 51.7598C154.356 51.7598 157.557 44.7995 157.557 28.4795C157.557 12.6397 154.356 5.83984 146.836 5.83984ZM116.527 29.6865C106.011 35.5839 88.7908 36.1273 85.9346 48.3193C89.4546 42.5596 94.4149 39.3594 100.175 39.3594C106.015 39.3595 109.455 42 114.095 42C115.77 42 117.443 41.6818 118.609 40.4209C117.339 37.1992 116.621 33.5996 116.527 29.6865Z" fill="#FC6081"/>
</svg>
